# xmcd
#
# Track frame offsets: 
#        150
#        13117
#        47007
#        70127
#        96579
#        115091
#        137634
#        160030
#        173835
#        184271
#        206071
#        224990
#        254991
#        283573
#        308312
#
# Disc length: 4679 seconds
#
# Revision: 3
# Processed by: cddbd v1.5.1PL2 Copyright (c) Steve Scherf et al.
# Submitted via: ExactAudioCopy v0.90b4
#
DISCID=e512450f
DTITLE=Various Artist - Higher Ground Hurricane Relief Benefit Concer
DTITLE=t
DYEAR=2005
DGENRE=Jazz
TTITLE0=Shirley Caesar with Eric Reed - This Joy
TTITLE1=Terence Blanchard - Over There
TTITLE2=Aaron and Art Neville - Go To The Mardi Gras
TTITLE3=Diana Krall - Basin Street Blues
TTITLE4=James Taylor - Never Die Young
TTITLE5=Dianne Reeves - The House I Live In
TTITLE6=Marcus Roberts Trio - New Orleans Blues
TTITLE7=Norah Jones - I Think It's Going To Rain Today
TTITLE8=Wynton Marsalis Hot Seven - Dippermouth Blues
TTITLE9=Buckwheat Zydeco - I'm Gonna Love You Anyway
TTITLE10=Bette Midler and The Lincoln Center Jazz Orchestra - Is That Al
TTITLE10=l There Is?
TTITLE11=Irvin Mayfield - Just A Closer Walk With Thee
TTITLE12=Jordan Family - Here's To Life
TTITLE13=Joe Lovano - Blackwell's Message
TTITLE14=Cassandra Wilson, Mark O'Connor and The Lincoln Center Jazz Orc
TTITLE14=hestra - Come Sunday
EXTD=YEAR: 2005
EXTT0=
EXTT1=
EXTT2=
EXTT3=
EXTT4=
EXTT5=
EXTT6=
EXTT7=
EXTT8=
EXTT9=
EXTT10=
EXTT11=
EXTT12=
EXTT13=
EXTT14=
PLAYORDER=
